<svg xmlns="http://www.w3.org/2000/svg" width="64" height="64" viewBox="0 0 64 64">
    <g fill="none" fill-rule="evenodd" transform="translate(2.207 9.931)">
        <path fill="#FFDEAD" fill-rule="nonzero" d="M33.203 10.052a8.596 8.596 0 007.15-2.45l.353-.352 11.62 11.619-1.369 1.368a9.103 9.103 0 00-2.494 4.679 9.137 9.137 0 01-2.482 4.678L34.47 41.092 23.747 30.367l-4.623-4.613-3.167-3.166L26.052 12.49a8.552 8.552 0 017.15-2.439z"/>
        <path fill="#FFC670" fill-rule="nonzero" d="M48.088 26.273c.828-2.759-8.562-6.5-8.562-6.5l-6.621-2.03L32 20.226l5.286 5.363 3.542 6.554 2.206.409 2.969-2.958a9.159 9.159 0 002.085-3.32z"/>
        <path d="M33.203 10.052a8.596 8.596 0 007.15-2.45l.353-.352 11.62 11.619-1.369 1.368a9.103 9.103 0 00-2.494 4.679 9.137 9.137 0 01-2.482 4.678L34.47 41.092 23.747 30.367l-4.623-4.613-3.167-3.166L26.052 12.49a8.552 8.552 0 017.15-2.439z"/>
        <path fill="#96DDFF" fill-rule="nonzero" d="M17.621 1.619l2.095 2.095a2 2 0 010 2.828L6.55 19.71a2 2 0 01-2.829 0l-2.095-2.095a2 2 0 010-2.828L14.793 1.619a2 2 0 012.828 0z"/>
        <path fill="#69BAF9" fill-rule="nonzero" d="M4.039 12.37L8.96 17.29l-2.207 2.207a2.207 2.207 0 01-3.123 0l-1.853-1.744a2.207 2.207 0 010-3.122l2.262-2.262z"/>
        <path d="M17.621 1.619l2.095 2.095a2 2 0 010 2.828L6.55 19.71a2 2 0 01-2.829 0l-2.095-2.095a2 2 0 010-2.828L14.793 1.619a2 2 0 012.828 0z"/>
        <path fill="#FFF6E6" fill-rule="nonzero" d="M30.963 16.254l-4.182 4.17-4.326-4.325 5.065-5.065-4.414-.551a3.31 3.31 0 01-1.93-.95l-2.274-2.272L7.261 18.869l3.619 3.62a4.58 4.58 0 011.192 2.063 11.641 11.641 0 003.012 5.241l9.997 10.008 10.086-10.085 4.623-4.624-8.827-8.838z"/>
        <path fill="#FFC670" fill-rule="nonzero" d="M57.958 17.62l-2.095 2.095a2 2 0 01-2.828 0L39.868 6.548a2 2 0 010-2.829l2.095-2.095a2 2 0 012.828 0l13.167 13.167a2 2 0 010 2.829z"/>
        <path fill="#FF9A42" fill-rule="nonzero" d="M55.548 12.37l-4.922 4.921 2.207 2.207a2.207 2.207 0 003.123 0l1.798-1.799a2.207 2.207 0 000-3.122l-2.206-2.207z"/>
        <path d="M57.958 17.62l-2.095 2.095a2 2 0 01-2.828 0L39.868 6.548a2 2 0 010-2.829l2.095-2.095a2 2 0 012.828 0l13.167 13.167a2 2 0 010 2.829z"/>
        <path fill="#FFF6E6" fill-rule="nonzero" d="M33.909 19.2l11.2 11.189a2.593 2.593 0 010 3.674 2.615 2.615 0 01-3.686 0L30.234 22.874"/>
        <path fill="#FFF6E6" fill-rule="nonzero" d="M30.234 22.874l14.092 14.092a2.593 2.593 0 010 3.674 2.593 2.593 0 01-3.675 0L26.56 26.549"/>
        <path fill="#FFF6E6" fill-rule="nonzero" d="M26.56 26.549l11.189 11.189a2.615 2.615 0 010 3.685 2.593 2.593 0 01-3.675 0l-11.188-11.2"/>
        <path fill="#FFF6E6" fill-rule="nonzero" d="M22.886 30.223l8.375 8.398a2.593 2.593 0 010 3.674 2.593 2.593 0 01-3.675 0l-8.375-8.386"/>
        <circle cx="17.578" cy="32.265" r="2.604" fill="#FFDEAD" fill-rule="nonzero"/>
        <circle cx="21.252" cy="35.939" r="2.604" fill="#FFDEAD" fill-rule="nonzero"/>
        <circle cx="24.927" cy="39.614" r="2.604" fill="#FFDEAD" fill-rule="nonzero"/>
        <path fill="#FFDEAD" fill-rule="nonzero" d="M39.978 19.796A13.948 13.948 0 0133.5 18.03a4.16 4.16 0 00-4.977.651l-3.652 3.653a3.046 3.046 0 01-4.326 0 3.046 3.046 0 010-4.326l5.75-5.76"/>
        <path fill="#3D3D63" fill-rule="nonzero" d="M58.571 13.881L45.694 1.004a3.31 3.31 0 00-4.635 0l-1.798 1.799a3.31 3.31 0 00-.144 4.469 7.548 7.548 0 01-5.782 1.71 9.743 9.743 0 00-5.605 1.004h-.078l-4.413-.563a2.207 2.207 0 01-1.302-.64l-1.468-1.467a3.31 3.31 0 00-.121-4.491l-1.799-1.799a3.31 3.31 0 00-4.635 0L1.015 13.881a3.31 3.31 0 000 4.635l1.799 1.798a3.31 3.31 0 004.49.122l2.826 2.814c.43.44.74.984.904 1.578a12.712 12.712 0 003.31 5.704 3.663 3.663 0 003.234 5.385 3.652 3.652 0 003.674 3.675c.01.98.407 1.915 1.104 2.604a3.641 3.641 0 004.314.629l.199.198a3.652 3.652 0 006.025-1.324l.452.453a3.663 3.663 0 005.197 0c.365-.375.64-.828.806-1.324l.54.54a3.675 3.675 0 005.198-5.197l-.54-.54a3.476 3.476 0 001.312-.84 3.641 3.641 0 001.104-2.592 3.586 3.586 0 00-.42-1.667l.21-.22a10.041 10.041 0 002.792-5.22 7.9 7.9 0 012.207-4.126l.562-.563a3.31 3.31 0 004.492-.122l1.798-1.798a3.31 3.31 0 00-.033-4.602zM4.337 18.76l-1.8-1.755a1.103 1.103 0 010-1.556L15.449 2.527a1.103 1.103 0 011.6 0l1.71 1.799a1.103 1.103 0 010 1.6L5.938 18.759a1.103 1.103 0 01-1.6 0zm12.215 14.587a1.534 1.534 0 010-2.207 1.534 1.534 0 012.151 0 1.541 1.541 0 01-2.151 2.207zm3.674 3.675a1.523 1.523 0 011.104-2.604 1.49 1.49 0 011.103.44 1.545 1.545 0 010 2.208 1.556 1.556 0 01-2.262-.044h.055zm3.675 3.674a1.523 1.523 0 010-2.207 1.556 1.556 0 011.103-.441 1.523 1.523 0 11-1.103 2.604v.044zm20.502-7.382c-.614.6-1.594.6-2.207 0l-11.2-11.244a1.103 1.103 0 10-1.523 1.523l14.091 14.135c.294.292.457.69.453 1.103a1.5 1.5 0 01-.453 1.104 1.534 1.534 0 01-2.152 0l-14.09-14.146a1.103 1.103 0 00-1.523 1.522l11.2 11.19a1.56 1.56 0 01-2.207 2.206L23.647 29.462a1.103 1.103 0 00-1.523 1.523l8.386 8.386a1.56 1.56 0 11-2.207 2.207l-.198-.199a3.641 3.641 0 00-3.233-5.373 3.597 3.597 0 00-3.675-3.642 3.652 3.652 0 00-5.374-3.31 10.549 10.549 0 01-2.714-4.778 5.517 5.517 0 00-1.468-2.538l-2.813-2.803L18.935 8.828l1.457 1.456a4.414 4.414 0 002.549 1.247l2.273.287-5.43 5.429a4.138 4.138 0 105.85 5.848l3.652-3.652a3.057 3.057 0 012.504-.85L44.348 31.15c.29.293.45.691.441 1.104a1.536 1.536 0 01-.441 1.06h.055zm3.045-8.607a8.022 8.022 0 01-2.207 4.127l-.077.077-8.53-8.507a14.61 14.61 0 003.31.463 1.026 1.026 0 001.104-1.048c0-.61-.494-1.104-1.103-1.104a13.01 13.01 0 01-5.97-1.633 5.252 5.252 0 00-6.256.828l-3.653 3.652a1.986 1.986 0 11-2.758-2.802l5.517-5.518a7.57 7.57 0 016.278-2.13 9.688 9.688 0 007.515-2.283l10.14 10.107-.551.54a10.097 10.097 0 00-2.759 5.231zm9.633-7.724L55.25 18.76a1.103 1.103 0 01-1.6 0L40.828 5.926a1.103 1.103 0 010-1.6l1.798-1.8a1.103 1.103 0 011.6 0l12.822 12.922c.428.43.428 1.126 0 1.556l.033-.022z"/>
    </g>
</svg>
