<svg xmlns="http://www.w3.org/2000/svg" width="64" height="64" viewBox="0 0 64 64">
    <g fill="none" fill-rule="evenodd" transform="translate(1.23 3.692)">
        <path d="M53.14 28.695L53.573 24.011 59.875 20.479 53.242 17.618 51.829 10.53 48.809 13.972"/>
        <path fill="#79DEB4" fill-rule="nonzero" d="M18.416 5.698h25.835v9.88a6.074 6.074 0 01-6.086 6.074H24.49a6.074 6.074 0 01-6.074-6.074v-9.88z"/>
        <path fill="#EDF4FF" fill-rule="nonzero" d="M35.886 17.687V5.698h-9.117v11.989c-8.89 2.295-14.687 10.843-13.53 19.952 1.157 9.108 8.907 15.936 18.089 15.936 9.181 0 16.931-6.828 18.088-15.936 1.157-9.109-4.64-17.657-13.53-19.952z"/>
        <path fill="#D8E3F0" fill-rule="nonzero" d="M31.328 42.165a27.624 27.624 0 01-18.234-6.837c0 10.07 8.163 18.233 18.234 18.233 10.07 0 18.233-8.163 18.233-18.233a27.613 27.613 0 01-18.233 6.837z"/>
        <circle cx="31.328" cy="35.328" r="18.234"/>
        <path fill="#FFC670" fill-rule="nonzero" d="M46.53 1.14H16.137a2.28 2.28 0 000 4.558H46.53a2.28 2.28 0 100-4.558z"/>
        <circle cx="31.328" cy="35.328" r="13.675" fill="#FFC670" fill-rule="nonzero"/>
        <path fill="#FFA742" fill-rule="nonzero" d="M31.328 38.462a40.57 40.57 0 01-13.676-2.348c.546 7.127 6.488 12.631 13.636 12.631 7.148 0 13.09-5.504 13.635-12.631a40.638 40.638 0 01-13.595 2.348z"/>
        <circle cx="31.328" cy="35.328" r="13.675"/>
        <path fill="#FFDEAD" fill-rule="nonzero" d="M29.698 27.35L26.279 32.672 29.698 32.672 29.698 43.305 34.256 43.305 34.256 27.35z"/>
        <path fill="#FFEFB0" fill-rule="nonzero" d="M60.33 19.43l-6.085-2.62-1.3-6.554a1.14 1.14 0 00-.82-.877 1.14 1.14 0 00-1.14.353l-3.02 3.419a1.14 1.14 0 00-.284.752v2.28a7.077 7.077 0 01-.707 3.076c-.203.42-.131.92.183 1.265a21.732 21.732 0 014.9 8.445 1.14 1.14 0 001.083.809h.125a1.14 1.14 0 001.014-1.026l.422-4.045 5.698-3.237a1.14 1.14 0 00.581-1.048 1.14 1.14 0 00-.65-.992zM9.675 35.328c.01-1.823.247-3.638.707-5.402a1.14 1.14 0 00-.388-1.14L7.453 26.69a1.14 1.14 0 00-1.14-.148 1.14 1.14 0 00-.66 1.003l-.137 5.265-4.479 2.872a1.14 1.14 0 00-.513 1.14c.053.428.345.79.752.934l4.969 1.766 1.368 5.083c.112.418.452.736.877.82h.228c.353 0 .685-.164.9-.444l1.14-1.447a1.14 1.14 0 00.17-1.071 21.652 21.652 0 01-1.253-7.134z"/>
        <path d="M9.288 29.641L6.735 27.578 6.575 33.436 1.664 36.638 7.191 38.598 8.718 44.262 9.823 42.815"/>
        <path fill="#3D3D63" fill-rule="nonzero" d="M43.578 20.33a7.202 7.202 0 001.812-4.752v-8.74h1.14a3.419 3.419 0 100-6.838H16.137a3.419 3.419 0 100 6.838h1.14v8.74c0 1.751.64 3.441 1.8 4.752a19.373 19.373 0 1024.501 0zM16.137 4.558a1.14 1.14 0 010-2.279H46.53a1.14 1.14 0 110 2.28H16.137zm26.974 2.28v8.74a4.877 4.877 0 01-1.413 3.42 19.635 19.635 0 00-4.672-2.177V6.838h6.085zm-8.365 0v9.436a19.76 19.76 0 00-3.418-.32c-1.147.008-2.29.115-3.42.32V6.838h6.838zm-9.116 0v9.971a19.373 19.373 0 00-4.661 2.177 4.877 4.877 0 01-1.413-3.419v-8.73h6.074zm5.698 45.584c-9.441 0-17.094-7.654-17.094-17.094 0-9.441 7.653-17.094 17.094-17.094 9.44 0 17.094 7.653 17.094 17.094a17.094 17.094 0 01-17.094 17.094z"/>
        <path fill="#3D3D63" fill-rule="nonzero" d="M31.328 20.513c-8.182 0-14.815 6.633-14.815 14.815 0 8.182 6.633 14.814 14.815 14.814 8.182 0 14.814-6.632 14.814-14.814S39.51 20.513 31.328 20.513zm0 27.35a12.536 12.536 0 1112.535-12.535c0 6.923-5.612 12.535-12.535 12.535z"/>
        <path fill="#3D3D63" fill-rule="nonzero" d="M34.256 26.21h-4.558a1.14 1.14 0 00-.957.525l-3.42 5.322a1.14 1.14 0 00.958 1.755h2.28v9.493c0 .63.51 1.14 1.139 1.14h4.558c.63 0 1.14-.51 1.14-1.14V27.35c0-.629-.51-1.14-1.14-1.14zm-1.14 15.955h-2.278v-9.493c0-.629-.51-1.14-1.14-1.14h-1.333l1.96-3.042h2.792v13.675zM60.33 19.43l-6.085-2.62-1.3-6.554a1.14 1.14 0 00-.82-.877 1.14 1.14 0 00-1.14.353l-3.02 3.419a1.14 1.14 0 001.71 1.504l1.504-1.71.958 4.821c.07.37.317.68.66.832l4.56 1.949-4.297 2.393a1.14 1.14 0 00-.638.992l-.433 4.683a1.14 1.14 0 00.843 1.208c.06.011.122.011.182 0a1.14 1.14 0 001.242-1.025l.445-4.091 5.698-3.237a1.14 1.14 0 00.581-1.048 1.14 1.14 0 00-.65-.992zM9.242 41.835l-.946-3.533a1.14 1.14 0 00-.729-.775l-3.35-1.14 2.985-1.948a1.14 1.14 0 00.513-.923l.091-3.556.764.615a1.14 1.14 0 001.424-1.777l-2.541-2.109a1.14 1.14 0 00-1.14-.148 1.14 1.14 0 00-.66 1.003l-.137 5.265-4.479 2.872a1.14 1.14 0 00-.513 1.14c.053.428.345.79.752.934l4.969 1.766 1.368 5.083c.112.418.452.736.877.82.23.05.47.022.684-.08a1.14 1.14 0 00.444-.341l1.14-1.447a1.14 1.14 0 00-1.482-1.676l-.034-.045z"/>
    </g>
</svg>
