<svg xmlns="http://www.w3.org/2000/svg" width="64" height="64" viewBox="0 0 64 64">
    <path fill="#FFF" d="M31.98 11.106c10.567 0 20.024 6.558 23.728 16.454 3.705 9.896.879 21.051-7.09 27.99 2.187.424 3.67 2.474 3.386 4.684-.284 2.21-2.237 3.82-4.46 3.676-2.224-.144-3.954-1.99-3.951-4.218.002-.255.028-.508.077-.758-7.324 3.825-16.056 3.825-23.38 0 .05.25.075.503.078.758.002 2.228-1.727 4.074-3.951 4.218-2.224.143-4.176-1.466-4.46-3.676-.284-2.21 1.198-4.26 3.386-4.684-7.97-6.939-10.795-18.094-7.09-27.99 3.704-9.896 13.16-16.454 23.727-16.454zM16.145 57.58c-1.166 0-2.111.945-2.111 2.112 0 1.166.945 2.111 2.111 2.111 1.166 0 2.112-.945 2.112-2.111 0-1.167-.946-2.112-2.112-2.112zm31.67 0c-1.166 0-2.11.945-2.11 2.112 0 1.166.944 2.111 2.11 2.111s2.112-.945 2.112-2.111c0-1.167-.946-2.112-2.112-2.112zM2.361 47.706c1.614 4.22 4.104 8.05 7.307 11.236l-1.487 1.5c-3.417-3.4-6.073-7.486-7.793-11.989zm59.239 0l1.973.747c-1.72 4.503-4.377 8.589-7.794 11.988l-1.486-1.499c3.203-3.187 5.693-7.016 7.307-11.236zM31.98 13.242c-12.826 0-23.224 10.398-23.224 23.225.014 12.82 10.404 23.21 23.224 23.225 12.827 0 23.225-10.399 23.225-23.225 0-12.827-10.398-23.225-23.225-23.225zm0 2.112c11.655.013 21.1 9.458 21.114 21.113 0 11.66-9.453 21.113-21.114 21.113-11.66 0-21.113-9.453-21.113-21.113S20.32 15.354 31.98 15.354zm0 2.11c-10.494 0-19.002 8.508-19.002 19.003 0 10.494 8.508 19.002 19.002 19.002 10.49-.012 18.99-8.513 19.002-19.002 0-10.495-8.507-19.002-19.002-19.002zM4.533 36.468c.005 6.285 2.162 12.379 6.112 17.268l-1.641 1.33C4.75 49.798 2.427 43.235 2.422 36.466zm57.006 0c-.005 6.77-2.329 13.332-6.582 18.597l-1.642-1.33c3.951-4.888 6.108-10.982 6.113-17.267zm-28.503 14.78v2.11h-2.111v-2.11h2.111zm0-27.448v9.695c1.39.488 2.258 1.872 2.092 3.336-.166 1.464-1.32 2.619-2.785 2.784-1.463.166-2.847-.702-3.336-2.091h-7.583V35.41h7.583c.32-.894 1.023-1.598 1.918-1.917v-9.695h2.111zM31.98 35.411c-.583 0-1.055.473-1.055 1.056 0 .583.472 1.056 1.055 1.056s1.056-.473 1.056-1.056c0-.583-.473-1.056-1.056-1.056zm-14.779 0v2.112H15.09V35.41H17.2zm31.67 0v2.112H46.76V35.41h2.111zM42.537.574c2.83.009 5.15 2.25 5.258 5.078 4.021-1.105 8.325.032 11.277 2.977l1.492 1.492c4.528 4.538 4.528 11.884 0 16.422-.411.413-1.08.413-1.492 0L42.649 10.122c-.412-.413-.412-1.08 0-1.493.892-.89 1.924-1.627 3.055-2.183v-.593c0-1.75-1.418-3.167-3.167-3.167H21.424c-1.75 0-3.167 1.417-3.167 3.167v.593c1.13.556 2.162 1.293 3.055 2.183.412.412.412 1.08 0 1.493L4.889 26.545c-.198.198-.467.309-.747.31-.28-.001-.548-.112-.746-.31-4.528-4.538-4.528-11.885 0-16.423l1.493-1.493c2.951-2.945 7.255-4.082 11.276-2.977.108-2.829 2.428-5.069 5.259-5.078zm15.042 9.548c-3.421-3.423-8.868-3.726-12.65-.706l14.848 14.847c3.02-3.78 2.717-9.227-.705-12.649zM19.03 9.416c-3.78-3.02-9.227-2.717-12.649.706L4.89 11.614c-3.423 3.422-3.726 8.868-.705 12.65zm14.006 10.16v2.112h-2.111v-2.112h2.111z"/>
</svg>
