<svg xmlns="http://www.w3.org/2000/svg" width="24" height="24" viewBox="0 0 24 24">
    <path fill="#FFF" d="M1.786 5.91h20.428c.434 0 .786-.351.786-.785V3.161c0-.434-.352-.786-.786-.786H1.786c-.434 0-.786.352-.786.786v1.964c0 .434.352.786.786.786zm0 7.858h20.428c.434 0 .786-.352.786-.786v-1.964c0-.434-.352-.786-.786-.786H1.786c-.434 0-.786.352-.786.786v1.964c0 .434.352.786.786.786zm0 7.857h20.428c.434 0 .786-.352.786-.786v-1.964c0-.434-.352-.786-.786-.786H1.786c-.434 0-.786.352-.786.786v1.964c0 .434.352.786.786.786z"/>
</svg>
