<svg xmlns="http://www.w3.org/2000/svg" width="64" height="85" viewBox="0 0 64 85">
    <g fill="none" fill-rule="evenodd">
        <path fill="#EFEFEF" d="M15 0h49v85H0V12.04c4.096-4.524 6.753-7.374 7.97-8.549C9.796 1.728 11 0 15 0z"/>
        <path stroke="#737072" d="M63.5.5H15c-3.349 0-4.62 1.291-6.065 2.74-.2.201-.405.406-.617.61C7.117 5.01 4.51 7.806.5 12.235V84.5h63V.5z"/>
        <path fill="#737072" d="M26.347 28.333h6.597v5.689c0 1.634.17 2.227.49 2.824.32.598.789 1.067 1.386 1.386.598.32 1.19.49 2.825.49h5.688v13.93c0 1.744-.181 2.376-.522 3.014a3.554 3.554 0 01-1.479 1.478c-.637.341-1.27.523-3.012.523H26.347c-1.743 0-2.375-.182-3.013-.523a3.554 3.554 0 01-1.478-1.478c-.341-.638-.523-1.27-.523-3.013V33.347c0-1.743.182-2.375.523-3.013a3.554 3.554 0 011.478-1.478c.638-.341 1.27-.523 3.013-.523zm8.43 0l8.556 8.556h-5.735c-.98 0-1.336-.102-1.695-.294a1.999 1.999 0 01-.831-.832c-.192-.358-.294-.714-.294-1.694v-5.736z" opacity=".501"/>
    </g>
</svg>
