<svg xmlns="http://www.w3.org/2000/svg" width="64" height="85" viewBox="0 0 64 85">
    <g fill="none" fill-rule="evenodd">
        <path fill="#EFEFEF" d="M15 0h49v85H0V12.04c4.096-4.524 6.753-7.374 7.97-8.549C9.796 1.728 11 0 15 0z"/>
        <path stroke="#737072" d="M63.5.5H15c-3.349 0-4.62 1.291-6.065 2.74-.2.201-.405.406-.617.61C7.117 5.01 4.51 7.806.5 12.235V84.5h63V.5z"/>
        <path fill="#737072" d="M21.72 36.556h20.56c1.525 0 2.078.158 2.636.457a3.11 3.11 0 011.294 1.293c.298.558.457 1.111.457 2.637v8.932c0 1.743-.182 2.376-.523 3.013a3.554 3.554 0 01-1.478 1.478c-.638.341-1.27.523-3.013.523H22.347c-1.743 0-2.375-.182-3.013-.523a3.554 3.554 0 01-1.478-1.478c-.341-.637-.523-1.27-.523-3.013v-8.932c0-1.526.16-2.079.457-2.637a3.11 3.11 0 011.294-1.293c.558-.299 1.11-.457 2.636-.457zm12.724 15.888a7.333 7.333 0 100-14.666 7.333 7.333 0 000 14.666zm0-1.833a5.5 5.5 0 110-11 5.5 5.5 0 010 11zM21 42.056a1.833 1.833 0 100-3.667 1.833 1.833 0 000 3.667zm.329-9.167h4.933c.218 0 .354.034.474.098s.213.158.277.277c.064.12.098.256.098.474v.135c0 .218-.034.355-.098.474a.666.666 0 01-.277.277c-.12.064-.256.098-.474.098h-5.873v-.893c0-.327.034-.445.098-.565a.666.666 0 01.277-.277c.12-.064.238-.098.565-.098zm3.949 3.667h1.09c.842 0 1.626-.435 2.072-1.15l1.62-2.59a2.444 2.444 0 012.073-1.15h4.623c.843 0 1.626.435 2.073 1.15l1.62 2.59a2.444 2.444 0 002.072 1.15H43 25.278z" opacity=".501"/>
    </g>
</svg>
