<svg xmlns="http://www.w3.org/2000/svg" width="64" height="85" viewBox="0 0 64 85">
    <g fill="none" fill-rule="evenodd">
        <path fill="#EFEFEF" d="M15 0h49v85H0V12.04c4.096-4.524 6.753-7.374 7.97-8.549C9.796 1.728 11 0 15 0z"/>
        <path stroke="#737072" d="M63.5.5H15c-3.349 0-4.62 1.291-6.065 2.74-.2.201-.405.406-.617.61C7.117 5.01 4.51 7.806.5 12.235V84.5h63V.5z"/>
        <path fill="#737072" d="M22.347 34.333h10.75c1.744 0 2.376.182 3.013.523.638.34 1.138.84 1.479 1.478.34.638.522 1.27.522 3.013v7.084c0 1.743-.181 2.375-.522 3.013a3.554 3.554 0 01-1.479 1.478c-.637.34-1.27.522-3.013.522h-10.75c-1.743 0-2.375-.181-3.013-.522a3.554 3.554 0 01-1.478-1.478c-.341-.638-.523-1.27-.523-3.013v-7.084c0-1.743.182-2.375.523-3.013a3.554 3.554 0 011.478-1.478c.638-.341 1.27-.523 3.013-.523zm17.597 5.5l5.053-5.053a.978.978 0 011.67.692v14.834a.978.978 0 01-1.67.691l-5.053-5.053v-6.11zm-18.333.611a1.833 1.833 0 100-3.666 1.833 1.833 0 000 3.666z" opacity=".501"/>
    </g>
</svg>
