<svg xmlns="http://www.w3.org/2000/svg" width="32" height="32" viewBox="0 0 32 32">
    <path fill="#B2C85F" fill-rule="evenodd" d="M12.208 5.458a4.125 4.125 0 118.25 0 4.125 4.125 0 01-8.25 0zm14.588.079a1.833 1.833 0 00-2.592 0L19.24 10.5h-5.815L8.463 5.537A1.833 1.833 0 105.87 8.13l5.422 5.421v15.282c0 1.013.82 1.834 1.833 1.834h.917c1.012 0 1.833-.821 1.833-1.834v-6.416h.917v6.416c0 1.013.82 1.834 1.833 1.834h.917c1.012 0 1.833-.821 1.833-1.834V13.551l5.421-5.421a1.833 1.833 0 000-2.593z" opacity=".3"/>
</svg>
