<svg xmlns="http://www.w3.org/2000/svg" width="48" height="48" viewBox="0 0 48 48">
    <path fill="#7F267B" fill-rule="evenodd" d="M18.312 8.188C18.312 4.77 21.082 2 24.5 2c3.417 0 6.187 2.77 6.187 6.188 0 3.417-2.77 6.187-6.187 6.187-3.417 0-6.188-2.77-6.188-6.188zm21.882.117c-1.073-1.073-2.815-1.073-3.889 0l-7.444 7.445h-8.722l-7.445-7.445c-1.073-1.073-2.815-1.073-3.889 0-1.073 1.074-1.073 2.816 0 3.89l8.132 8.132V43.25c0 1.519 1.232 2.75 2.75 2.75h1.375c1.52 0 2.75-1.231 2.75-2.75v-9.625h1.375v9.625c0 1.519 1.232 2.75 2.75 2.75h1.375c1.52 0 2.75-1.231 2.75-2.75V20.327l8.132-8.132c1.074-1.074 1.074-2.816 0-3.89z"/>
</svg>
