<svg xmlns="http://www.w3.org/2000/svg" width="32" height="32" viewBox="0 0 32 32">
    <g fill="none" fill-rule="evenodd">
        <rect width="31" height="31" x=".5" y=".5" stroke="#CCC" rx="15.5"/>
        <path fill="#B3B2B3" d="M14.698 7.667h2.604c.433 0 .781.348.781.78v5.47h2.855c.58 0 .87.7.46 1.11l-4.952 4.954c-.244.244-.645.244-.889 0L10.6 15.027c-.41-.41-.12-1.11.459-1.11h2.858v-5.47c0-.432.348-.78.78-.78zm9.635 12.24v3.645c0 .433-.348.781-.78.781H8.447c-.433 0-.781-.348-.781-.78v-3.647c0-.433.348-.781.78-.781h4.776l1.595 1.595c.655.654 1.71.654 2.364 0l1.595-1.595h4.775c.433 0 .781.348.781.781zm-4.036 2.864c0-.358-.293-.651-.651-.651-.358 0-.651.293-.651.65 0 .359.293.652.65.652.359 0 .652-.293.652-.651zm2.083 0c0-.358-.293-.651-.65-.651-.359 0-.652.293-.652.65 0 .359.293.652.651.652.358 0 .651-.293.651-.651z"/>
    </g>
</svg>
