<svg xmlns="http://www.w3.org/2000/svg" width="32" height="32" viewBox="0 0 32 32">
    <g fill="#B2C85F" fill-rule="evenodd">
        <path d="M23.647 19.94c-.82-.796-1.837-1.787-1.837-5.659 0-2.843-2.13-5.201-4.923-5.651.136-.191.209-.418.208-.65 0-.634-.527-1.147-1.178-1.147-.651 0-1.179.513-1.179 1.146 0 .242.077.466.209.65-2.793.45-4.923 2.81-4.923 5.652 0 3.872-1.018 4.863-1.838 5.66-1.11 1.08-.323 2.934 1.25 2.934h4.124c0 1.266 1.055 2.292 2.357 2.292 1.301 0 2.357-1.026 2.357-2.292h4.123c1.57 0 2.362-1.852 1.25-2.934zm-7.73 3.794a.29.29 0 01.294.287.29.29 0 01-.294.286c-.813 0-1.474-.642-1.474-1.432h.59c0 .474.396.86.884.86z"/>
    </g>
</svg>
