<svg xmlns="http://www.w3.org/2000/svg" width="25" height="24" viewBox="0 0 25 24">
    <path fill="#fff" fill-rule="evenodd" d="M10.857 2h3.125c.52 0 .938.418.938.938V9.5h3.426c.695 0 1.043.84.55 1.332l-5.941 5.945c-.293.293-.773.293-1.066 0l-5.95-5.945C5.447 10.34 5.795 9.5 6.49 9.5h3.43V2.937c0-.519.418-.937.937-.937zM22.42 16.688v4.375c0 .519-.418.937-.938.937H3.357c-.52 0-.937-.418-.937-.938v-4.375c0-.519.418-.937.937-.937h5.73l1.915 1.914c.785.785 2.05.785 2.836 0l1.914-1.914h5.73c.52 0 .938.418.938.938zm-4.844 3.437c0-.43-.351-.781-.781-.781-.43 0-.781.351-.781.781 0 .43.351.781.78.781.43 0 .782-.351.782-.781zm2.5 0c0-.43-.351-.781-.781-.781-.43 0-.781.351-.781.781 0 .43.351.781.78.781.43 0 .782-.351.782-.781z"/>
</svg>
