<svg xmlns="http://www.w3.org/2000/svg" width="48" height="48" viewBox="0 0 48 48">
    <path fill="#B3B2B3" fill-rule="evenodd" d="M15.52 2h9.897v8.533c0 2.451.255 3.34.734 4.237.48.896 1.183 1.6 2.08 2.079.896.48 1.785.734 4.236.734H41V38.48c0 2.615-.272 3.564-.784 4.52-.51.956-1.261 1.706-2.217 2.217-.956.512-1.905.784-4.52.784H15.521c-2.615 0-3.564-.272-4.52-.784-.956-.51-1.706-1.261-2.217-2.217-.512-.956-.784-1.905-.784-4.52V9.521c0-2.615.272-3.564.784-4.52.51-.956 1.261-1.706 2.217-2.217.956-.512 1.905-.784 4.52-.784zm12.647 0L41 14.833h-8.603c-1.47 0-2.004-.153-2.542-.44-.538-.288-.96-.71-1.248-1.248-.287-.538-.44-1.071-.44-2.542V2z" opacity=".3"/>
</svg>
