<svg xmlns="http://www.w3.org/2000/svg" xmlns:xlink="http://www.w3.org/1999/xlink" width="60" height="80" viewBox="0 0 60 80">
    <defs>
        <path id="kmqjtoch4a" d="M13.674 0h17.993v15.514c0 4.458.464 6.074 1.335 7.704.872 1.63 2.15 2.908 3.78 3.78 1.63.871 3.246 1.335 7.704 1.335H60v37.993c0 4.755-.495 6.479-1.425 8.217-.93 1.738-2.294 3.103-4.032 4.032-1.738.93-3.462 1.425-8.217 1.425H13.674c-4.755 0-6.479-.495-8.217-1.425-1.738-.93-3.103-2.294-4.032-4.032C.495 72.805 0 71.081 0 66.326V13.674C0 8.92.495 7.195 1.425 5.457c.93-1.738 2.294-3.103 4.032-4.032C7.195.495 8.919 0 13.674 0zM36 0l24 23H43.911c-2.75 0-3.748-.274-4.754-.79-1.006-.515-1.795-1.272-2.333-2.236-.538-.963-.824-1.92-.824-4.556V0z"/>
    </defs>
    <g fill="none" fill-rule="evenodd">
        <g>
            <g>
                <g>
                    <g transform="translate(-740 -692) translate(212 210) translate(456 458) translate(72 24)">
                        <mask id="txy20ho5ob" fill="#fff">
                            <use xlink:href="#kmqjtoch4a"/>
                        </mask>
                        <use fill="#CCC" xlink:href="#kmqjtoch4a"/>
                        <g fill="#737072" mask="url(#txy20ho5ob)" opacity=".501">
                            <path d="M6.347 7.333h10.75c1.744 0 2.376.182 3.013.523.638.34 1.138.84 1.479 1.478.34.638.522 1.27.522 3.013v7.084c0 1.743-.181 2.375-.522 3.013-.341.637-.841 1.137-1.479 1.478-.637.34-1.27.522-3.013.522H6.347c-1.743 0-2.375-.181-3.013-.522-.637-.34-1.137-.841-1.478-1.478-.341-.638-.523-1.27-.523-3.013v-7.084c0-1.743.182-2.375.523-3.013.34-.637.84-1.137 1.478-1.478.638-.341 1.27-.523 3.013-.523zm17.597 5.5l5.053-5.053c.382-.382 1.001-.382 1.383 0 .184.184.287.432.287.692v14.834c0 .54-.438.978-.978.978-.26 0-.508-.103-.692-.287l-5.053-5.053v-6.11zm-18.333.611c1.013 0 1.833-.82 1.833-1.833 0-1.012-.82-1.833-1.833-1.833-1.012 0-1.833.82-1.833 1.833s.82 1.833 1.833 1.833z" transform="translate(14 40)"/>
                        </g>
                        <path fill="#7F267B" style="mix-blend-mode:color" d="M0 0H60V80H0z" mask="url(#txy20ho5ob)"/>
                    </g>
                </g>
            </g>
        </g>
    </g>
</svg>
