<svg xmlns="http://www.w3.org/2000/svg" xmlns:xlink="http://www.w3.org/1999/xlink" width="60" height="80" viewBox="0 0 60 80">
    <defs>
        <linearGradient id="db0nvu3nkb" x1="50%" x2="41.58%" y1="0%" y2="48.374%">
            <stop offset="0%" stop-color="#B837B3"/>
            <stop offset="100%" stop-color="#7F267B"/>
        </linearGradient>
        <linearGradient id="0rstzaj0od" x1="100%" x2="0%" y1="0%" y2="100%">
            <stop offset="0%" stop-color="#B837B3"/>
            <stop offset="100%" stop-color="#7F267B"/>
        </linearGradient>
        <path id="mpyu4jz16a" d="M13.674 0h17.993v15.514c0 4.458.464 6.074 1.335 7.704.872 1.63 2.15 2.908 3.78 3.78 1.63.871 3.246 1.335 7.704 1.335H60v37.993c0 4.755-.495 6.479-1.425 8.217-.93 1.738-2.294 3.103-4.032 4.032-1.738.93-3.462 1.425-8.217 1.425H13.674c-4.755 0-6.479-.495-8.217-1.425-1.738-.93-3.103-2.294-4.032-4.032C.495 72.805 0 71.081 0 66.326V13.674C0 8.92.495 7.195 1.425 5.457c.93-1.738 2.294-3.103 4.032-4.032C7.195.495 8.919 0 13.674 0zM36 0l24 23H43.911c-2.75 0-3.748-.274-4.754-.79-1.006-.515-1.795-1.272-2.333-2.236-.538-.963-.824-1.92-.824-4.556V0z"/>
    </defs>
    <g fill="none" fill-rule="evenodd">
        <g>
            <g transform="translate(-562 -111) translate(562 111)">
                <mask id="xcecgy19ic" fill="#fff">
                    <use xlink:href="#mpyu4jz16a"/>
                </mask>
                <use fill="#FFF" stroke="url(#db0nvu3nkb)" xlink:href="#mpyu4jz16a"/>
                <g fill="url(#0rstzaj0od)" fill-rule="nonzero" mask="url(#xcecgy19ic)">
                    <path d="M18.667 13.333H28c1.473 0 2.667 1.194 2.667 2.667 0 1.473-1.194 2.667-2.667 2.667h-9.333V28c0 1.473-1.194 2.667-2.667 2.667-1.473 0-2.667-1.194-2.667-2.667v-9.333H4c-1.473 0-2.667-1.194-2.667-2.667 0-1.473 1.194-2.667 2.667-2.667h9.333V4c0-1.473 1.194-2.667 2.667-2.667 1.473 0 2.667 1.194 2.667 2.667v9.333z" transform="translate(14 40)"/>
                </g>
            </g>
        </g>
    </g>
</svg>
