<svg xmlns="http://www.w3.org/2000/svg" xmlns:xlink="http://www.w3.org/1999/xlink" width="60" height="80" viewBox="0 0 60 80">
    <defs>
        <path id="oa4so45mra" d="M13.674 0h17.993v15.514c0 4.458.464 6.074 1.335 7.704.872 1.63 2.15 2.908 3.78 3.78 1.63.871 3.246 1.335 7.704 1.335H60v37.993c0 4.755-.495 6.479-1.425 8.217-.93 1.738-2.294 3.103-4.032 4.032-1.738.93-3.462 1.425-8.217 1.425H13.674c-4.755 0-6.479-.495-8.217-1.425-1.738-.93-3.103-2.294-4.032-4.032C.495 72.805 0 71.081 0 66.326V13.674C0 8.92.495 7.195 1.425 5.457c.93-1.738 2.294-3.103 4.032-4.032C7.195.495 8.919 0 13.674 0zM36 0l24 23H43.911c-2.75 0-3.748-.274-4.754-.79-1.006-.515-1.795-1.272-2.333-2.236-.538-.963-.824-1.92-.824-4.556V0z"/>
    </defs>
    <g fill="none" fill-rule="evenodd">
        <g>
            <g>
                <g>
                    <g transform="translate(-968 -452) translate(212 210) translate(684 218) translate(72 24)">
                        <mask id="cy9nxrxfeb" fill="#fff">
                            <use xlink:href="#oa4so45mra"/>
                        </mask>
                        <use fill="#CCC" xlink:href="#oa4so45mra"/>
                        <g fill="#737072" mask="url(#cy9nxrxfeb)" opacity=".501">
                            <path d="M17.667 9.75V2.667H7.25c-.693 0-1.25.557-1.25 1.25v24.166c0 .693.557 1.25 1.25 1.25h17.5c.693 0 1.25-.557 1.25-1.25V11h-7.083c-.688 0-1.25-.563-1.25-1.25zM21 22.042c0 .343-.281.625-.625.625h-8.75c-.344 0-.625-.282-.625-.625v-.417c0-.344.281-.625.625-.625h8.75c.344 0 .625.281.625.625v.417zm0-3.334c0 .344-.281.625-.625.625h-8.75c-.344 0-.625-.28-.625-.625v-.416c0-.344.281-.625.625-.625h8.75c.344 0 .625.28.625.625v.416zm0-3.75v.417c0 .344-.281.625-.625.625h-8.75c-.344 0-.625-.281-.625-.625v-.417c0-.343.281-.625.625-.625h8.75c.344 0 .625.282.625.625zm5-5.942v.317h-6.667V2.667h.318c.333 0 .651.13.885.364l5.1 5.104c.234.235.364.553.364.88z" transform="translate(14 40)"/>
                        </g>
                        <path fill="#00BDF7" style="mix-blend-mode:color" d="M0 0H60V80H0z" mask="url(#cy9nxrxfeb)"/>
                    </g>
                </g>
            </g>
        </g>
    </g>
</svg>
