<svg xmlns="http://www.w3.org/2000/svg" xmlns:xlink="http://www.w3.org/1999/xlink" width="60" height="80" viewBox="0 0 60 80">
    <defs>
        <path id="ivuge1vgfa" d="M13.674 0h17.993v15.514c0 4.458.464 6.074 1.335 7.704.872 1.63 2.15 2.908 3.78 3.78 1.63.871 3.246 1.335 7.704 1.335H60v37.993c0 4.755-.495 6.479-1.425 8.217-.93 1.738-2.294 3.103-4.032 4.032-1.738.93-3.462 1.425-8.217 1.425H13.674c-4.755 0-6.479-.495-8.217-1.425-1.738-.93-3.103-2.294-4.032-4.032C.495 72.805 0 71.081 0 66.326V13.674C0 8.92.495 7.195 1.425 5.457c.93-1.738 2.294-3.103 4.032-4.032C7.195.495 8.919 0 13.674 0zM36 0l24 23H43.911c-2.75 0-3.748-.274-4.754-.79-1.006-.515-1.795-1.272-2.333-2.236-.538-.963-.824-1.92-.824-4.556V0z"/>
    </defs>
    <g fill="none" fill-rule="evenodd">
        <g>
            <g>
                <g transform="translate(-216 -111) translate(20 111) translate(196)">
                    <mask id="kxc258yl8b" fill="#fff">
                        <use xlink:href="#ivuge1vgfa"/>
                    </mask>
                    <use fill="#CCC" xlink:href="#ivuge1vgfa"/>
                    <g fill="#737072" mask="url(#kxc258yl8b)" opacity=".501">
                        <path d="M25.083 5.466c5.667 5.868 5.667 15.201 0 21.08-2.27 2.351-5.937-1.081-3.583-3.517 3.77-3.905 3.781-10.13 0-14.046-2.302-2.394 1.281-5.91 3.583-3.517zM12.667 8.48v14.277c0 1.123-1.344 1.68-2.136.892l-3.698-3.831H3.917c-.688 0-1.25-.567-1.25-1.26v-5.879c0-.693.562-1.26 1.25-1.26h2.916l3.698-3.831c.792-.798 2.136-.231 2.136.892zm7.041 2.257c2.834 2.929 2.834 7.6 0 10.54-2.27 2.34-5.927-1.092-3.583-3.517.948-.976.948-2.53 0-3.506-2.302-2.394 1.27-5.9 3.583-3.517z" transform="translate(14 40)"/>
                    </g>
                    <path fill="#F7B500" style="mix-blend-mode:color" d="M0 0H60V80H0z" mask="url(#kxc258yl8b)"/>
                </g>
            </g>
        </g>
    </g>
</svg>
