<svg xmlns="http://www.w3.org/2000/svg" xmlns:xlink="http://www.w3.org/1999/xlink" width="60" height="80" viewBox="0 0 60 80">
    <defs>
        <path id="cuxswjzi0a" d="M13.674 0h17.993v15.514c0 4.458.464 6.074 1.335 7.704.872 1.63 2.15 2.908 3.78 3.78 1.63.871 3.246 1.335 7.704 1.335H60v37.993c0 4.755-.495 6.479-1.425 8.217-.93 1.738-2.294 3.103-4.032 4.032-1.738.93-3.462 1.425-8.217 1.425H13.674c-4.755 0-6.479-.495-8.217-1.425-1.738-.93-3.103-2.294-4.032-4.032C.495 72.805 0 71.081 0 66.326V13.674C0 8.92.495 7.195 1.425 5.457c.93-1.738 2.294-3.103 4.032-4.032C7.195.495 8.919 0 13.674 0zM36 0l24 23H43.911c-2.75 0-3.748-.274-4.754-.79-1.006-.515-1.795-1.272-2.333-2.236-.538-.963-.824-1.92-.824-4.556V0z"/>
    </defs>
    <g fill="none" fill-rule="evenodd">
        <g>
            <g>
                <g>
                    <g transform="translate(-284 -692) translate(212 210) translate(0 458) translate(72 24)">
                        <mask id="m6wvtbtmsb" fill="#fff">
                            <use xlink:href="#cuxswjzi0a"/>
                        </mask>
                        <use fill="#CCC" xlink:href="#cuxswjzi0a"/>
                        <g fill="#737072" mask="url(#m6wvtbtmsb)" opacity=".501">
                            <path d="M17.13 3.333c5.008 0 8.203 3.615 8.203 8.487 0 9.953-9.991 8.553-12.5 8.553v6.304c0 .728-.608 1.323-1.35 1.323H8.016c-.743 0-1.35-.595-1.35-1.323V4.656c0-.727.607-1.323 1.35-1.323h9.114zm-1.17 5.18h-3.139v6.69h3.027c1.035 0 1.823-.319 2.374-.936 1.125-1.257 1.103-3.66.023-4.86-.54-.596-1.294-.893-2.284-.893z" transform="translate(14 40)"/>
                        </g>
                        <path fill="#ED8405" style="mix-blend-mode:color" d="M0 0H60V80H0z" mask="url(#m6wvtbtmsb)"/>
                    </g>
                </g>
            </g>
        </g>
    </g>
</svg>
