<svg xmlns="http://www.w3.org/2000/svg" xmlns:xlink="http://www.w3.org/1999/xlink" width="60" height="80" viewBox="0 0 60 80">
    <defs>
        <path id="csfhgx2zra" d="M13.674 0h17.993v15.514c0 4.458.464 6.074 1.335 7.704.872 1.63 2.15 2.908 3.78 3.78 1.63.871 3.246 1.335 7.704 1.335H60v37.993c0 4.755-.495 6.479-1.425 8.217-.93 1.738-2.294 3.103-4.032 4.032-1.738.93-3.462 1.425-8.217 1.425H13.674c-4.755 0-6.479-.495-8.217-1.425-1.738-.93-3.103-2.294-4.032-4.032C.495 72.805 0 71.081 0 66.326V13.674C0 8.92.495 7.195 1.425 5.457c.93-1.738 2.294-3.103 4.032-4.032C7.195.495 8.919 0 13.674 0zM36 0l24 23H43.911c-2.75 0-3.748-.274-4.754-.79-1.006-.515-1.795-1.272-2.333-2.236-.538-.963-.824-1.92-.824-4.556V0z"/>
    </defs>
    <g fill="none" fill-rule="evenodd">
        <g>
            <g>
                <g>
                    <g transform="translate(-740 -452) translate(212 210) translate(456 218) translate(72 24)">
                        <mask id="n7fxrem4pb" fill="#fff">
                            <use xlink:href="#csfhgx2zra"/>
                        </mask>
                        <use fill="#CCC" xlink:href="#csfhgx2zra"/>
                        <g fill="#737072" mask="url(#n7fxrem4pb)" opacity=".501">
                            <path d="M26.463 5.917l-6.391 9.74 6.391 9.739c.543.833-.063 1.927-1.074 1.927h-3.711c-.468 0-.904-.25-1.127-.656-2.085-3.771-3.882-7.157-3.882-7.157-.68 1.542-1.064 2.084-3.892 7.167-.224.406-.65.656-1.117.656H7.949c-1.01 0-1.617-1.093-1.075-1.927l6.413-9.74-6.413-9.739C6.321 5.094 6.938 4 7.95 4h3.7c.468 0 .904.25 1.128.656 2.775 5.084 2.127 3.5 3.892 7.136 0 0 .649-1.219 3.892-7.136.224-.406.66-.656 1.127-.656h3.701c1.01-.01 1.617 1.083 1.074 1.917z" transform="translate(14 40)"/>
                        </g>
                        <path fill="#09652A" style="mix-blend-mode:color" d="M0 0H60V80H0z" mask="url(#n7fxrem4pb)"/>
                    </g>
                </g>
            </g>
        </g>
    </g>
</svg>
