<svg xmlns="http://www.w3.org/2000/svg" xmlns:xlink="http://www.w3.org/1999/xlink" width="60" height="80" viewBox="0 0 60 80">
    <defs>
        <path id="3aaahpbdza" d="M13.674 0h17.993v15.514c0 4.458.464 6.074 1.335 7.704.872 1.63 2.15 2.908 3.78 3.78 1.63.871 3.246 1.335 7.704 1.335H60v37.993c0 4.755-.495 6.479-1.425 8.217-.93 1.738-2.294 3.103-4.032 4.032-1.738.93-3.462 1.425-8.217 1.425H13.674c-4.755 0-6.479-.495-8.217-1.425-1.738-.93-3.103-2.294-4.032-4.032C.495 72.805 0 71.081 0 66.326V13.674C0 8.92.495 7.195 1.425 5.457c.93-1.738 2.294-3.103 4.032-4.032C7.195.495 8.919 0 13.674 0zM36 0l24 23H43.911c-2.75 0-3.748-.274-4.754-.79-1.006-.515-1.795-1.272-2.333-2.236-.538-.963-.824-1.92-.824-4.556V0z"/>
        <path id="2tizj0471c" d="M7.667 4c2.761 0 5 2.209 5 4.933 0 2.725-2.239 4.934-5 4.934-2.762 0-5-2.209-5-4.934C2.667 6.21 4.905 4 7.667 4zm21.666 24.667H2.667l.05-4.984 4.116-4.06c.488-.482 1.23-.433 1.718.05l4.116 4.06 10.782-10.639c.489-.481 1.28-.481 1.768 0l4.116 4.062v11.51z"/>
    </defs>
    <g fill="none" fill-rule="evenodd">
        <g>
            <g>
                <g>
                    <g transform="translate(-1196 -452) translate(212 210) translate(912 218) translate(72 24)">
                        <mask id="mhr0am339b" fill="#fff">
                            <use xlink:href="#3aaahpbdza"/>
                        </mask>
                        <use fill="#CCC" xlink:href="#3aaahpbdza"/>
                        <g mask="url(#mhr0am339b)" opacity=".501">
                            <g transform="translate(14 40)">
                                <use fill="#000" fill-rule="nonzero" xlink:href="#2tizj0471c"/>
                            </g>
                        </g>
                        <path fill="#8F81FF" style="mix-blend-mode:color" d="M0 0H60V80H0z" mask="url(#mhr0am339b)"/>
                    </g>
                </g>
            </g>
        </g>
    </g>
</svg>
