<svg xmlns="http://www.w3.org/2000/svg" xmlns:xlink="http://www.w3.org/1999/xlink" width="60" height="80" viewBox="0 0 60 80">
    <defs>
        <path id="ojzf27gf5a" d="M13.674 0h17.993v15.514c0 4.458.464 6.074 1.335 7.704.872 1.63 2.15 2.908 3.78 3.78 1.63.871 3.246 1.335 7.704 1.335H60v37.993c0 4.755-.495 6.479-1.425 8.217-.93 1.738-2.294 3.103-4.032 4.032-1.738.93-3.462 1.425-8.217 1.425H13.674c-4.755 0-6.479-.495-8.217-1.425-1.738-.93-3.103-2.294-4.032-4.032C.495 72.805 0 71.081 0 66.326V13.674C0 8.92.495 7.195 1.425 5.457c.93-1.738 2.294-3.103 4.032-4.032C7.195.495 8.919 0 13.674 0zM36 0l24 23H43.911c-2.75 0-3.748-.274-4.754-.79-1.006-.515-1.795-1.272-2.333-2.236-.538-.963-.824-1.92-.824-4.556V0z"/>
    </defs>
    <g fill="none" fill-rule="evenodd">
        <g>
            <g>
                <g>
                    <g transform="translate(-512 -692) translate(212 210) translate(228 458) translate(72 24)">
                        <mask id="6gx5slfwsb" fill="#fff">
                            <use xlink:href="#ojzf27gf5a"/>
                        </mask>
                        <use fill="#CCC" xlink:href="#ojzf27gf5a"/>
                        <g fill="#737072" mask="url(#6gx5slfwsb)" opacity=".501">
                            <path d="M25.5 6h2.552c.822 0 1.43.764 1.25 1.582l-4.057 18.084c-.128.592-.652 1-1.25 1H19.94c-.587 0-1.1-.408-1.238-.979-2.754-11.14-2.22-8.74-2.733-11.894h-.053c-.118 1.54-.257 1.873-2.733 11.894-.139.57-.651.98-1.239.98h-3.96c-.598 0-1.12-.42-1.249-1.012L2.699 7.572C2.517 6.764 3.126 6 3.948 6h2.615c.609 0 1.142.43 1.26 1.044 1.665 8.396 2.146 11.787 2.242 13.154.17-1.098.779-3.52 3.138-13.208.139-.581.651-.98 1.25-.98h3.106c.597 0 1.11.41 1.249.991 2.562 10.807 3.074 13.347 3.16 13.929-.022-1.206-.278-1.916 2.305-13.907C24.38 6.42 24.903 6 25.501 6z" transform="translate(14 40)"/>
                        </g>
                        <path fill="#264B7F" style="mix-blend-mode:color" d="M0 0H60V80H0z" mask="url(#6gx5slfwsb)"/>
                    </g>
                </g>
            </g>
        </g>
    </g>
</svg>
