<svg xmlns="http://www.w3.org/2000/svg" width="24" height="24" viewBox="0 0 24 24">
    <path fill="#FFF" d="M18 10.75c.602 0 1.09.488 1.09 1.09v3.82h3.82c.602 0 1.09.488 1.09 1.09 0 .602-.488 1.09-1.09 1.09h-3.82v3.82c0 .602-.488 1.09-1.09 1.09-.602 0-1.09-.488-1.09-1.09v-3.82h-3.82c-.602 0-1.09-.488-1.09-1.09 0-.602.488-1.09 1.09-1.09h3.82v-3.82c0-.602.488-1.09 1.09-1.09zm1.8-9.25c1.157 0 2.113.9 2.194 2.032l.006.155v4.376c-.926 0-1.722.576-2.046 1.385-.53-.436-1.212-.698-1.954-.698l-.113.002c-1.655.06-2.978 1.42-2.978 3.089v1.818h-.462l-.708-2.654 3.619-2.943-4.664-.273L11 3.47l-1.705 4.31-4.664.273 3.619 2.942L7.062 15.5 11 12.984l1.241.793c-1.294.37-2.241 1.56-2.241 2.973l.002.113c.03.842.398 1.599.971 2.138L2.2 19c-1.157 0-2.113-.9-2.194-2.032L0 16.813v-4.375c1.221 0 2.2-.985 2.2-2.188 0-1.15-.896-2.101-2.033-2.182l-.156-.005V3.686c0-1.15.896-2.101 2.033-2.181L2.2 1.5h17.6z"/>
</svg>
