<svg xmlns="http://www.w3.org/2000/svg" width="16" height="16" viewBox="0 0 16 16">
    <path fill="#B3B2B3" fill-rule="evenodd" d="M2.48 8.61H1.327A.66.66 0 01.86 7.484L7.435.923a.794.794 0 011.124 0l6.589 6.603a.636.636 0 01-.45 1.085h-1.219v5.468c0 .436-.045.594-.13.753a.888.888 0 01-.37.37c-.159.085-.317.13-.753.13h-1.159c-.436 0-.594-.045-.753-.13a.888.888 0 01-.37-.37c-.085-.16-.13-.317-.13-.753v-2.993c0-.436-.046-.594-.131-.753a.888.888 0 00-.37-.37c-.159-.085-.317-.13-.753-.13H7.4c-.435 0-.593.045-.753.13a.888.888 0 00-.37.37c-.084.16-.13.317-.13.753v2.993c0 .436-.045.594-.13.753a.888.888 0 01-.37.37c-.16.085-.317.13-.753.13h-1.16c-.436 0-.594-.045-.754-.13a.888.888 0 01-.37-.37c-.084-.16-.13-.317-.13-.753V8.61zM12.25.668h.322c.288 0 .413.034.533.098.12.064.213.157.277.277.064.12.098.244.098.533v3.002L11.341 2.44v-.864c0-.289.034-.414.098-.533a.666.666 0 01.277-.277c.12-.064.245-.098.533-.098z"/>
</svg>
