<svg xmlns="http://www.w3.org/2000/svg" width="32" height="32" viewBox="0 0 48 48">
    <path fill="#CCC" fill-rule="nonzero" d="M7.44 25.832H3.98A1.98 1.98 0 0 1 2.58 22.45L22.306 2.767a2.383 2.383 0 0 1 3.37.003l19.767 19.808a1.907 1.907 0 0 1-1.35 3.254h-3.655v16.405c0 1.307-.136 1.781-.391 2.26-.256.477-.631.852-1.109 1.108-.478.256-.952.392-2.26.392h-3.477c-1.308 0-1.782-.136-2.26-.392a2.665 2.665 0 0 1-1.108-1.109c-.256-.478-.392-.952-.392-2.26v-8.978c0-1.307-.136-1.781-.392-2.26a2.665 2.665 0 0 0-1.109-1.108c-.478-.256-.952-.392-2.26-.392h-3.478c-1.308 0-1.782.136-2.26.392-.478.255-.853.63-1.109 1.109-.255.478-.391.952-.391 2.26v8.978c0 1.307-.137 1.781-.392 2.26-.256.477-.63.852-1.109 1.108-.478.256-.952.392-2.26.392h-3.48c-1.308 0-1.782-.136-2.26-.392a2.665 2.665 0 0 1-1.108-1.109c-.256-.478-.392-.952-.392-2.26V25.833zM36.749 2h.968c.865 0 1.24.102 1.599.294.358.192.64.473.831.831.192.359.294.734.294 1.6v9.007l-6.416-6.416V4.724c0-.865.102-1.24.294-1.599.191-.358.473-.64.831-.831.359-.192.733-.294 1.6-.294z"/>
</svg>
