<svg xmlns="http://www.w3.org/2000/svg" width="56" height="56" viewBox="0 0 56 56">
    <g fill="none" fill-rule="evenodd">
        <g fill="#7F267B">
            <g>
                <g>
                    <g>
                        <path d="M6.672 12.177v8.203c0 2.714 2.208 4.922 4.922 4.922h3.281c2.714 0 4.922-2.208 4.922-4.922v-8.203h16.406v8.203c0 2.714 2.208 4.922 4.922 4.922h3.281c2.714 0 4.922-2.208 4.922-4.922v-8.203h1.75c2.714 0 4.922 2.208 4.922 4.922v32.812c0 2.714-2.208 4.922-4.922 4.922H31.281V44.387c3.815-1.356 6.563-4.961 6.563-9.241 0-3.216-1.552-6.05-3.94-7.837-.498-.372-1.163-.43-1.718-.152-.556.278-.905.846-.905 1.467v6.522c0 .906-.734 1.64-1.64 1.64h-3.282c-.906 0-1.64-.734-1.64-1.64v-6.522c0-.62-.35-1.188-.905-1.466s-1.22-.22-1.717.151c-2.39 1.787-3.94 4.621-3.94 7.837 0 4.28 2.747 7.885 6.562 9.24v10.447H5.03C2.317 54.833 0 52.625 0 49.911V17.1c0-2.714 2.317-4.922 5.031-4.922h1.64zm36.094-9.844c1.812 0 3.28 1.47 3.28 3.282V20.38c0 .906-.734 1.64-1.64 1.64h-3.281c-.906 0-1.64-.734-1.64-1.64V5.615h-22.97V20.38c0 .906-.734 1.64-1.64 1.64h-3.281c-.906 0-1.64-.734-1.64-1.64V5.615c0-1.813 1.468-3.282 3.28-3.282z" transform="translate(-1084 -246) translate(212 210) translate(852) translate(20 36)"/>
                    </g>
                </g>
            </g>
        </g>
    </g>
</svg>
