<svg xmlns="http://www.w3.org/2000/svg" width="56" height="56" viewBox="0 0 56 56">
    <g fill="none" fill-rule="evenodd">
        <g fill="#7F267B">
            <g>
                <g>
                    <g>
                        <path d="M8.681 30.137H4.643c-1.276 0-2.31-1.034-2.31-2.31 0-.613.244-1.202.679-1.635L26.024 3.228c1.087-1.085 2.847-1.083 3.932.004l23.06 23.11c.869.869.867 2.277-.002 3.145-.417.416-.983.65-1.572.65h-4.264v19.14c0 1.525-.159 2.078-.457 2.635-.298.558-.736.996-1.293 1.294-.558.298-1.111.457-2.637.457h-4.057c-1.525 0-2.078-.159-2.636-.457-.557-.298-.995-.736-1.293-1.294-.299-.557-.457-1.11-.457-2.636V38.801c0-1.525-.16-2.078-.457-2.636-.299-.558-.736-.995-1.294-1.294-.558-.298-1.11-.457-2.636-.457h-4.059c-1.525 0-2.079.16-2.636.457-.558.299-.995.736-1.294 1.294-.298.558-.457 1.11-.457 2.636v10.475c0 1.526-.159 2.079-.457 2.636-.298.558-.736.996-1.293 1.294-.558.298-1.111.457-2.637.457h-4.06c-1.526 0-2.079-.159-2.636-.457-.558-.298-.996-.736-1.294-1.294-.298-.557-.457-1.11-.457-2.636v-19.14zM42.873 2.333h1.128c1.01 0 1.448.12 1.866.343.418.224.747.552.97.97.224.419.343.856.343 1.866v10.51l-7.486-7.486V5.512c0-1.01.12-1.447.343-1.866.224-.418.552-.746.97-.97.419-.224.856-.343 1.866-.343z" transform="translate(-516 -246) translate(212 210) translate(284) translate(20 36)"/>
                    </g>
                </g>
            </g>
        </g>
    </g>
</svg>
