<svg xmlns="http://www.w3.org/2000/svg" width="56" height="56" viewBox="0 0 56 56">
    <g fill="none" fill-rule="evenodd">
        <g fill="#7F267B">
            <g>
                <g>
                    <g>
                        <path d="M18.312 8.188a6.187 6.187 0 1 1 12.375 0 6.187 6.187 0 0 1-12.375 0zm21.882.117a2.75 2.75 0 0 0-3.889 0l-7.444 7.445h-8.722l-7.445-7.445a2.75 2.75 0 1 0-3.889 3.89l8.132 8.132V43.25a2.75 2.75 0 0 0 2.75 2.75h1.375a2.75 2.75 0 0 0 2.75-2.75v-9.625h1.375v9.625a2.75 2.75 0 0 0 2.75 2.75h1.375a2.75 2.75 0 0 0 2.75-2.75V20.327l8.132-8.132a2.75 2.75 0 0 0 0-3.89z" transform="translate(-800 -246) translate(212 210) translate(568) translate(20 36)"/>
                    </g>
                </g>
            </g>
        </g>
    </g>
</svg>
