<svg xmlns="http://www.w3.org/2000/svg" width="56" height="56" viewBox="0 0 56 56">
    <g fill="none" fill-rule="evenodd">
        <g fill="#fff">
            <g>
                <g>
                    <path d="M38.125 7.3H22.183c-2.173 0-2.962.227-3.756.653-.795.425-1.418 1.05-1.843 1.844-.425.796-.651 1.585-.651 3.76V47.41c0 2.01.193 2.836.557 3.578-.616-.242-1.164-.614-1.627-1.11-.616-.658-1.039-1.361-1.602-3.463L5.14 16.073c-.563-2.101-.548-2.922-.343-3.8.204-.878.645-1.643 1.303-2.26.657-.616 1.36-1.04 3.46-1.602L30.45 2.807c2.1-.563 2.92-.549 3.797-.344.877.205 1.641.647 2.257 1.305.616.658 1.039 1.362 1.601 3.463l.019.07zM24.621 9.74H46.25c2.173 0 2.961.227 3.756.653.794.425 1.418 1.05 1.843 1.845.425.795.651 1.584.651 3.76V47.41c0 2.176-.226 2.964-.651 3.76-.425.795-1.049 1.42-1.843 1.845-.795.425-1.583.652-3.756.652H24.62c-2.173 0-2.96-.227-3.755-.652-.795-.426-1.418-1.05-1.843-1.845-.425-.796-.652-1.584-.652-3.76V15.998c0-2.176.227-2.965.652-3.76.425-.796 1.048-1.42 1.843-1.845.794-.426 1.582-.652 3.756-.652zm1.75 4.882c-1.086 0-1.48.113-1.878.326-.397.212-.709.524-.921.922-.213.398-.326.792-.326 1.88v5.945c0 1.088.113 1.482.326 1.88.212.397.524.71.921.922.397.213.792.326 1.878.326H44.5c1.087 0 1.48-.113 1.878-.326.397-.212.71-.525.922-.922.212-.398.325-.792.325-1.88V17.75c0-1.088-.113-1.482-.325-1.88-.213-.398-.525-.71-.922-.922-.397-.213-.791-.326-1.878-.326H26.371zm-1.906 17.082c-.673 0-1.219.546-1.219 1.22 0 .674.546 1.22 1.219 1.22h21.94c.674 0 1.22-.546 1.22-1.22 0-.674-.546-1.22-1.22-1.22h-21.94zm0 4.88c-.673 0-1.219.547-1.219 1.22 0 .674.546 1.22 1.219 1.22h21.94c.674 0 1.22-.546 1.22-1.22 0-.673-.546-1.22-1.22-1.22h-21.94zm0 4.881c-.673 0-1.219.546-1.219 1.22 0 .674.546 1.22 1.219 1.22H41.53c.673 0 1.219-.546 1.219-1.22 0-.674-.546-1.22-1.22-1.22H24.466z" transform="translate(-232 -246) translate(212 210) translate(20 36)"/>
                </g>
            </g>
        </g>
    </g>
</svg>
