<svg xmlns="http://www.w3.org/2000/svg" xmlns:xlink="http://www.w3.org/1999/xlink" width="24" height="24" viewBox="0 0 24 24">
    <defs>
        <path id="prefix__a" d="M21.621 9.953c.152-.121.379-.008.379.184v7.988C22 19.16 21.16 20 20.125 20H3.875C2.84 20 2 19.16 2 18.125v-7.984c0-.196.223-.305.379-.184.875.68 2.035 1.543 6.02 4.438.824.601 2.214 1.867 3.601 1.859 1.395.012 2.813-1.281 3.605-1.86 3.985-2.894 5.141-3.761 6.016-4.44zM12 15c.906.016 2.21-1.14 2.867-1.617 5.184-3.762 5.578-4.09 6.774-5.028.226-.175.359-.449.359-.738v-.742C22 5.84 21.16 5 20.125 5H3.875C2.84 5 2 5.84 2 6.875v.742c0 .29.133.559.36.738 1.195.934 1.59 1.266 6.773 5.028.656.476 1.96 1.633 2.867 1.617z"/>
    </defs>
    <g fill="none" fill-rule="evenodd">
        <use fill="#fff" xlink:href="#prefix__a"/>
    </g>
</svg>
