<svg xmlns="http://www.w3.org/2000/svg" width="32" height="32" viewBox="0 0 48 48">
    <defs>
        <linearGradient id="prefix__a" x1="100%" x2="0%" y1="14.644%" y2="85.356%">
            <stop offset="0%" stop-color="#B837B3"/>
            <stop offset="100%" stop-color="#7F267B"/>
        </linearGradient>
    </defs>
    <path fill="url(#prefix__a)" fill-rule="nonzero" d="M18.312 8.188a6.187 6.187 0 1 1 12.375 0 6.187 6.187 0 0 1-12.375 0zm21.882.117a2.75 2.75 0 0 0-3.889 0l-7.444 7.445h-8.722l-7.445-7.445a2.75 2.75 0 1 0-3.889 3.89l8.132 8.132V43.25a2.75 2.75 0 0 0 2.75 2.75h1.375a2.75 2.75 0 0 0 2.75-2.75v-9.625h1.375v9.625a2.75 2.75 0 0 0 2.75 2.75h1.375a2.75 2.75 0 0 0 2.75-2.75V20.327l8.132-8.132a2.75 2.75 0 0 0 0-3.89z"/>
</svg>
