<svg xmlns="http://www.w3.org/2000/svg" width="271" height="320" viewBox="0 0 271 320">
    <defs>
        <filter id="prefix__a" width="117%" height="114.4%" x="-8.5%" y="-7.2%" filterUnits="objectBoundingBox">
            <feOffset dy="4" in="SourceAlpha" result="shadowOffsetOuter1"/>
            <feGaussianBlur in="shadowOffsetOuter1" result="shadowBlurOuter1" stdDeviation="4"/>
            <feColorMatrix in="shadowBlurOuter1" result="shadowMatrixOuter1" values="0 0 0 0 0.449629784 0 0 0 0 0.440034091 0 0 0 0 0.448909163 0 0 0 0.2 0"/>
            <feMerge>
                <feMergeNode in="shadowMatrixOuter1"/>
                <feMergeNode in="SourceGraphic"/>
            </feMerge>
        </filter>
    </defs>
    <g fill="none" fill-rule="evenodd">
        <g filter="url(#prefix__a)">
            <path fill="#00BDF7" fill-rule="nonzero" d="M0 64V40.742a44006.122 44006.122 0 0031.005-32.81C36.909 2.235 41.01 0 51 0h200c11.046 0 20 8.954 20 20v44H0z"/>
            <path fill="#FFF" d="M271 300v20H20c-11.046 0-20-8.954-20-20h271zM0 64h271v236H0V64zm0 0v-3.258a44005.99 44005.99 0 0031.005-32.81C36.909 22.235 41.01 20 51 20h200c11.046 0 20 8.954 20 20v24H0z"/>
        </g>
        <g>
            <text fill="#839834" font-family="Calibri-Bold, Calibri" font-size="14" font-weight="bold" transform="translate(213 2)">
                <tspan x=".315" y="13">Atelier</tspan>
            </text>
            <path fill="#0085AD" fill-rule="nonzero" d="M-213 -2H58V18H-213z" transform="translate(213 2)"/>
        </g>
    </g>
</svg>
