<svg xmlns="http://www.w3.org/2000/svg" width="16" height="16" viewBox="0 0 16 16">
    <path fill="#B3B2B3" fill-rule="evenodd" d="M8 .667A7.33 7.33 0 00.667 8 7.33 7.33 0 008 15.333c1.424 0 2.82-.418 4.004-1.19a.71.71 0 00.164-1.045l-.3-.368a.708.708 0 00-.928-.151A5.456 5.456 0 018 13.44C5 13.44 2.56 11 2.56 8 2.56 5 5 2.56 8 2.56c2.961 0 5.44 1.703 5.44 4.73 0 1.147-.623 2.358-1.72 2.475-.512-.013-.5-.38-.398-.888l.693-3.58a.71.71 0 00-.697-.845h-1.33a.4.4 0 00-.397.354v.003c-.435-.53-1.196-.644-1.773-.644-2.206 0-4.076 1.84-4.076 4.479 0 1.93 1.088 3.13 2.839 3.13.798 0 1.696-.462 2.217-1.133.282 1.008 1.201 1.008 2.091 1.008 3.22 0 4.444-2.117 4.444-4.359C15.333 3.26 12.081.667 8 .667zm-.641 9.002c-.658 0-1.067-.462-1.067-1.206 0-1.33.91-2.15 1.734-2.15.66 0 1.053.45 1.053 1.205 0 1.332-1.002 2.15-1.72 2.15z"/>
</svg>
