<svg xmlns="http://www.w3.org/2000/svg" width="24" height="24" viewBox="0 0 24 24">
    <path fill="#FFF" d="M18 11.75c.602 0 1.09.488 1.09 1.09v3.82h3.82c.602 0 1.09.488 1.09 1.09 0 .602-.488 1.09-1.09 1.09h-3.82v3.82c0 .602-.488 1.09-1.09 1.09-.602 0-1.09-.488-1.09-1.09v-3.82h-3.82c-.602 0-1.09-.488-1.09-1.09 0-.602.488-1.09 1.09-1.09h3.82v-3.82c0-.602.488-1.09 1.09-1.09zm-.179-8.575c.932 0 1.27.097 1.61.28.34.181.608.449.79.79.182.34.279.679.279 1.611v5.168c-.496-.683-1.267-1.155-2.15-1.254.04-.134.06-.311.06-.615V6.607c0-.466-.048-.635-.14-.806-.09-.17-.224-.304-.394-.395-.17-.091-.34-.14-.805-.14H9.302c-.466 0-.635.049-.805.14-.17.091-.304.225-.395.395-.09.17-.14.34-.14.806v2.548c0 .466.05.635.14.806.091.17.225.304.395.395.17.091.34.14.805.14l6.686-.001c-.6.515-1 1.256-1.069 2.092H8.485c-.289 0-.522.234-.522.523 0 .29.233.523.522.523h6.424v1.026h-1.818c-.12 0-.239.007-.355.02H8.485c-.289 0-.522.234-.522.523 0 .289.233.523.522.523h2.271c-.263.302-.468.656-.597 1.045H8.485c-.289 0-.522.235-.522.524 0 .288.233.523.522.523l1.516-.001.001.047c.06 1.655 1.42 2.978 3.089 2.978h1.818v1.158L8.552 22c-.932 0-1.27-.097-1.61-.28-.34-.182-.608-.45-.79-.79-.182-.34-.279-.679-.279-1.611V5.856c0-.932.097-1.27.28-1.611.181-.341.448-.609.789-.79.34-.183.678-.28 1.61-.28h9.27zM12.678.055c.376.089.703.278.967.56.264.282.445.583.686 1.484l.008.03H7.507c-.931 0-1.27.097-1.61.28-.34.182-.608.449-.79.79-.182.34-.279.679-.279 1.611V19.32c0 .861.083 1.215.24 1.533-.265-.104-.5-.263-.698-.476-.264-.282-.445-.583-.687-1.484L.203 5.89c-.241-.901-.235-1.253-.147-1.63.087-.376.276-.703.558-.968.282-.264.583-.445 1.483-.686L11.05.203c.9-.241 1.25-.235 1.627-.147z"/>
</svg>
