<svg xmlns="http://www.w3.org/2000/svg" width="16" height="16" viewBox="0 0 16 16">
    <path fill="#737072" fill-rule="evenodd" d="M11.2 6.108h3.886a7.343 7.343 0 010 3.784H11.2a16.054 16.054 0 000-3.784zm-5.293 4.73c.316 1.588.98 3.328 2.073 4.495h.04c1.094-1.17 1.758-2.91 2.073-4.494H5.907zm5.149-5.677h3.708A7.345 7.345 0 009.329.787c.894 1.275 1.444 2.849 1.727 4.374zm-.809.947H5.753a15.174 15.174 0 000 3.784h4.494c.158-1.239.158-2.544 0-3.784zm-5.303 4.73H1.237a7.344 7.344 0 005.434 4.375c-.895-1.276-1.444-2.85-1.727-4.374zm6.112 0c-.283 1.527-.833 3.1-1.727 4.375a7.344 7.344 0 005.434-4.374h-3.707zm-.963-5.677C9.777 3.574 9.113 1.834 8.02.667h-.04c-1.094 1.17-1.758 2.91-2.073 4.494h4.186zm-9.18.947a7.342 7.342 0 000 3.784H4.8a16.054 16.054 0 010-3.784H.914zm4.031-.947c.283-1.526.833-3.099 1.727-4.374a7.345 7.345 0 00-5.434 4.374h3.707z"/>
</svg>
