<svg xmlns="http://www.w3.org/2000/svg" width="32" height="32" viewBox="0 0 32 32">
    <path fill="#B2C85F" fill-rule="evenodd" d="M25.952 28.667H6.048a2.714 2.714 0 01-2.715-2.715V6.048c0-1.5 1.216-2.715 2.715-2.715h19.904c1.5 0 2.715 1.216 2.715 2.715v19.904c0 1.5-1.216 2.715-2.715 2.715zm-11.574-5.545l10.405-10.405a.905.905 0 000-1.28l-1.28-1.28a.905.905 0 00-1.28 0l-8.485 8.486-3.962-3.961a.905.905 0 00-1.28 0l-1.279 1.28a.905.905 0 000 1.279l5.881 5.88a.905.905 0 001.28 0z" opacity=".3"/>
</svg>
