<svg xmlns="http://www.w3.org/2000/svg" width="25" height="24" viewBox="0 0 25 24">
    <defs>
        <linearGradient id="prefix__a" x1="100%" x2="0%" y1="0%" y2="100%">
            <stop offset="0%" stop-color="#B837B3"/>
            <stop offset="100%" stop-color="#7F267B"/>
        </linearGradient>
    </defs>
    <path fill="url(#prefix__a)" d="M19.464 21.5H4.536A2.036 2.036 0 012.5 19.464V4.536C2.5 3.41 3.411 2.5 4.536 2.5h14.928c1.125 0 2.036.911 2.036 2.036v14.928a2.036 2.036 0 01-2.036 2.036zm-8.68-4.159l7.803-7.803a.679.679 0 000-.96l-.96-.96a.679.679 0 00-.96 0l-6.363 6.364-2.972-2.97a.679.679 0 00-.96 0l-.959.959a.679.679 0 000 .96l4.41 4.41a.679.679 0 00.96 0z" transform="translate(.5)"/>
</svg>
